<svg width="137" height="84" viewBox="0 0 137 84" fill="none" xmlns="http://www.w3.org/2000/svg">
<path d="M51.7 72.325L80.3 12.85L108.575 72.325H92L80.3 48.275L67.95 72.325H51.7Z" fill="white"/>
<path d="M77.375 7H62.1L55.275 20.975L50.075 32.025L41.3667 49.4416C38.3381 55.4988 32.1472 59.325 25.375 59.325H21.15L14 72.325H29.6L30.6834 72.1406C39.6394 70.6162 47.3929 65.0489 51.7 57.05L77.375 7Z" fill="white"/>
<path d="M24.6328 37.4209L37.1572 41.8374V47.9897L18.2388 39.9697V34.7842L37.1572 26.7642V32.9165L24.6328 37.4209Z" fill="white"/>
<path d="M112.367 37.5791L99.8428 33.1626V27.0103L118.761 35.0303V40.2158L99.8428 48.2358V42.0835L112.367 37.5791Z" fill="white"/>
</svg>
